<svg width="12px" height="24px" viewBox="0 0 12 24" version="1.1" xmlns="http://www.w3.org/2000/svg" xmlns:xlink="http://www.w3.org/1999/xlink">
  <!-- Generator: Sketch 42 (36781) - http://www.bohemiancoding.com/sketch -->
  <desc>Created with Sketch.</desc>
  <defs></defs>
  <path d="M12,0 L12,2.1510652 L10,2.1510652 L10,0 L12,0 Z M12,10.755326 L12,12.9063912 L10,12.9063912 L10,10.755326 L12,10.755326 Z M12,21.510652 L12,23.6617172 L10,23.6617172 L10,21.510652 L12,21.510652 Z M2,0 L2,2.1510652 L0,2.1510652 L0,0 L2,0 Z M2,10.755326 L2,12.9063912 L0,12.9063912 L0,10.755326 L2,10.755326 Z M2,21.510652 L2,23.6617172 L0,23.6617172 L0,21.510652 L2,21.510652 Z" id="path11_fill" stroke="none" fill="#DADADA" fill-rule="evenodd"></path>
</svg>
