<svg width="8px" height="12px" viewBox="69 2 8 12" version="1.1" xmlns="http://www.w3.org/2000/svg" xmlns:xlink="http://www.w3.org/1999/xlink">
  <!-- Generator: Sketch 42 (36781) - http://www.bohemiancoding.com/sketch -->
  <desc>Created with Sketch.</desc>
  <defs></defs>
  <path d="M75.847868,6.11965436 L76.9287677,4.10208484 L73.5507187,2 L72.575469,3.82014481 L72.2506091,4.42662671 L69,10.4942637 L69.7137738,13.3654724 L72.378049,12.5956279 L75.6286581,6.52871156 L75.847868,6.11965436 L75.847868,6.11965436 Z M70.2010697,12.4550236 L69.7249988,10.5418452 L69.7249988,10.5411246 L71.9772491,11.9429949 L70.2010697,12.4550236 L70.2010697,12.4550236 Z M72.3027691,11.3358031 L70.0505197,9.93465344 L72.8138389,4.77673399 L75.0654283,6.17859353 L72.3027691,11.3358031 L72.3027691,11.3358031 Z M73.1386988,4.17026284 L73.7890886,2.9573001 L76.041998,4.35844872 L75.3902882,5.57141253 L73.1386988,4.17026284 L73.1386988,4.17026284 Z" id="path25_fill" stroke="none" fill="#828282" fill-rule="evenodd"></path>
</svg>
