<svg width="10px" height="12px" viewBox="71 2 10 12" version="1.1" xmlns="http://www.w3.org/2000/svg" xmlns:xlink="http://www.w3.org/1999/xlink">
  <!-- Generator: Sketch 42 (36781) - http://www.bohemiancoding.com/sketch -->
  <desc>Created with Sketch.</desc>
  <defs></defs>
  <path d="M80.5,4.20622072 L78.5,4.20622072 L78.5,3.65466554 C78.5,2.74046283 77.82875,2 77,2 L75,2 C74.17125,2 73.5,2.74046283 73.5,3.65466554 L73.5,4.20622072 L71.5,4.20622072 C71.223875,4.20622072 71,4.45317955 71,4.7577759 C71,5.06237225 71.223875,5.30933108 71.5,5.30933108 L72,5.30933108 L72,11.9279932 C72,12.8421959 72.67125,13.5826588 73.5,13.5826588 L78.5,13.5826588 C79.32875,13.5826588 80,12.8421959 80,11.9279932 L80,5.30933108 L80.5,5.30933108 C80.776125,5.30933108 81,5.06237225 81,4.7577759 C81,4.45317955 80.776125,4.20622072 80.5,4.20622072 L80.5,4.20622072 Z M74.5,3.65466554 C74.5,3.3499313 74.72375,3.10311036 75,3.10311036 L77,3.10311036 C77.27625,3.10311036 77.5,3.3499313 77.5,3.65466554 L77.5,4.20622072 L74.5,4.20622072 L74.5,3.65466554 L74.5,3.65466554 Z M79,11.9279932 C79,12.2327275 78.77625,12.4795484 78.5,12.4795484 L73.5,12.4795484 C73.22375,12.4795484 73,12.2327275 73,11.9279932 L73,5.30933108 L79,5.30933108 L79,11.9279932 L79,11.9279932 Z" id="Shape-Copy-3" stroke="none" fill="#7F7F7F" fill-rule="evenodd"></path>
</svg>
